<mxfile host="app.diagrams.net" agent="Mozilla/5.0 (X11; Linux x86_64; rv:128.0) Gecko/20100101 Firefox/128.0" version="26.2.13">
  <diagram name="Page-1" id="vDgCcUW8xSEuDQ-LrevL">
    <mxGraphModel dx="347" dy="393" grid="1" gridSize="10" guides="1" tooltips="1" connect="1" arrows="1" fold="1" page="1" pageScale="1" pageWidth="850" pageHeight="1100" math="0" shadow="0">
      <root>
        <mxCell id="0" />
        <mxCell id="1" parent="0" />
        <mxCell id="e3mpNffNsozh0yP6Fvxf-7" value="" style="whiteSpace=wrap;html=1;aspect=fixed;fillColor=none;" vertex="1" parent="1">
          <mxGeometry x="235" y="80" width="375" height="375" as="geometry" />
        </mxCell>
        <mxCell id="e3mpNffNsozh0yP6Fvxf-2" value="buyer(Bidder)" style="shape=umlActor;verticalLabelPosition=bottom;verticalAlign=top;html=1;" vertex="1" parent="1">
          <mxGeometry x="170" y="150" width="30" height="60" as="geometry" />
        </mxCell>
        <mxCell id="e3mpNffNsozh0yP6Fvxf-8" value="Seller" style="shape=umlActor;verticalLabelPosition=bottom;verticalAlign=top;html=1;" vertex="1" parent="1">
          <mxGeometry x="160" y="320" width="30" height="60" as="geometry" />
        </mxCell>
        <mxCell id="e3mpNffNsozh0yP6Fvxf-12" value="create a Lot" style="ellipse;whiteSpace=wrap;html=1;fillColor=none;" vertex="1" parent="1">
          <mxGeometry x="450" y="330" width="120" height="40" as="geometry" />
        </mxCell>
        <mxCell id="e3mpNffNsozh0yP6Fvxf-14" value="view &lt;span data-huuid=&quot;11373124059797129529&quot;&gt;&lt;span&gt;hammer price&lt;/span&gt;&lt;/span&gt;" style="ellipse;whiteSpace=wrap;html=1;fillColor=none;" vertex="1" parent="1">
          <mxGeometry x="320" y="410" width="120" height="40" as="geometry" />
        </mxCell>
        <mxCell id="e3mpNffNsozh0yP6Fvxf-15" value="view auction product" style="ellipse;whiteSpace=wrap;html=1;fillColor=none;" vertex="1" parent="1">
          <mxGeometry x="430" y="110" width="120" height="40" as="geometry" />
        </mxCell>
        <mxCell id="e3mpNffNsozh0yP6Fvxf-16" value="bid" style="ellipse;whiteSpace=wrap;html=1;fillColor=none;" vertex="1" parent="1">
          <mxGeometry x="445" y="180" width="120" height="20" as="geometry" />
        </mxCell>
        <mxCell id="e3mpNffNsozh0yP6Fvxf-17" value="view live Auction" style="ellipse;whiteSpace=wrap;html=1;fillColor=none;" vertex="1" parent="1">
          <mxGeometry x="450" y="220" width="120" height="40" as="geometry" />
        </mxCell>
        <mxCell id="e3mpNffNsozh0yP6Fvxf-18" value="Auctioning System" style="text;html=1;align=center;verticalAlign=middle;whiteSpace=wrap;rounded=0;" vertex="1" parent="1">
          <mxGeometry x="240" y="90" width="60" height="30" as="geometry" />
        </mxCell>
        <mxCell id="e3mpNffNsozh0yP6Fvxf-19" value="" style="endArrow=none;html=1;rounded=0;entryX=-0.002;entryY=0.641;entryDx=0;entryDy=0;entryPerimeter=0;" edge="1" parent="1" target="e3mpNffNsozh0yP6Fvxf-15">
          <mxGeometry width="50" height="50" relative="1" as="geometry">
            <mxPoint x="200" y="180" as="sourcePoint" />
            <mxPoint x="250" y="140" as="targetPoint" />
          </mxGeometry>
        </mxCell>
        <mxCell id="e3mpNffNsozh0yP6Fvxf-21" value="" style="endArrow=none;html=1;rounded=0;entryX=0;entryY=0.5;entryDx=0;entryDy=0;exitX=0.043;exitY=0.245;exitDx=0;exitDy=0;exitPerimeter=0;" edge="1" parent="1" source="e3mpNffNsozh0yP6Fvxf-17" target="e3mpNffNsozh0yP6Fvxf-16">
          <mxGeometry width="50" height="50" relative="1" as="geometry">
            <mxPoint x="370" y="330" as="sourcePoint" />
            <mxPoint x="420" y="280" as="targetPoint" />
            <Array as="points">
              <mxPoint x="200" y="180" />
            </Array>
          </mxGeometry>
        </mxCell>
        <mxCell id="e3mpNffNsozh0yP6Fvxf-22" value="" style="endArrow=none;html=1;rounded=0;entryX=0.02;entryY=0.633;entryDx=0;entryDy=0;exitX=0.049;exitY=0.245;exitDx=0;exitDy=0;exitPerimeter=0;entryPerimeter=0;" edge="1" parent="1" source="e3mpNffNsozh0yP6Fvxf-14" target="e3mpNffNsozh0yP6Fvxf-12">
          <mxGeometry width="50" height="50" relative="1" as="geometry">
            <mxPoint x="280" y="443" as="sourcePoint" />
            <mxPoint x="460" y="400" as="targetPoint" />
            <Array as="points">
              <mxPoint x="191" y="360" />
            </Array>
          </mxGeometry>
        </mxCell>
        <mxCell id="e3mpNffNsozh0yP6Fvxf-44" value="&amp;nbsp;&amp;nbsp;&amp;nbsp;&amp;nbsp;&amp;nbsp;&amp;nbsp;&amp;nbsp; " style="edgeLabel;html=1;align=center;verticalAlign=middle;resizable=0;points=[];" vertex="1" connectable="0" parent="e3mpNffNsozh0yP6Fvxf-22">
          <mxGeometry x="0.0738" y="2" relative="1" as="geometry">
            <mxPoint x="37" as="offset" />
          </mxGeometry>
        </mxCell>
        <mxCell id="e3mpNffNsozh0yP6Fvxf-26" value="user" style="shape=umlActor;verticalLabelPosition=bottom;verticalAlign=top;html=1;" vertex="1" parent="1">
          <mxGeometry x="40" y="230" width="30" height="60" as="geometry" />
        </mxCell>
        <mxCell id="e3mpNffNsozh0yP6Fvxf-33" value="" style="endArrow=none;html=1;rounded=0;startArrow=block;startFill=0;" edge="1" parent="1">
          <mxGeometry width="50" height="50" relative="1" as="geometry">
            <mxPoint x="80" y="320" as="sourcePoint" />
            <mxPoint x="150" y="350" as="targetPoint" />
          </mxGeometry>
        </mxCell>
        <mxCell id="e3mpNffNsozh0yP6Fvxf-34" value="" style="endArrow=none;html=1;rounded=0;startArrow=block;startFill=0;" edge="1" parent="1">
          <mxGeometry width="50" height="50" relative="1" as="geometry">
            <mxPoint x="80" y="245" as="sourcePoint" />
            <mxPoint x="150" y="190" as="targetPoint" />
          </mxGeometry>
        </mxCell>
        <mxCell id="e3mpNffNsozh0yP6Fvxf-36" value="" style="endArrow=none;html=1;rounded=0;exitX=0.083;exitY=0.167;exitDx=0;exitDy=0;exitPerimeter=0;" edge="1" parent="1" source="e3mpNffNsozh0yP6Fvxf-38">
          <mxGeometry width="50" height="50" relative="1" as="geometry">
            <mxPoint x="280" y="300" as="sourcePoint" />
            <mxPoint x="200" y="180" as="targetPoint" />
          </mxGeometry>
        </mxCell>
        <mxCell id="e3mpNffNsozh0yP6Fvxf-37" value="" style="endArrow=none;html=1;rounded=0;exitX=0.195;exitY=0.848;exitDx=0;exitDy=0;exitPerimeter=0;" edge="1" parent="1" source="e3mpNffNsozh0yP6Fvxf-38">
          <mxGeometry width="50" height="50" relative="1" as="geometry">
            <mxPoint x="290" y="270" as="sourcePoint" />
            <mxPoint x="190" y="360" as="targetPoint" />
          </mxGeometry>
        </mxCell>
        <mxCell id="e3mpNffNsozh0yP6Fvxf-43" value="&amp;nbsp;&amp;nbsp;&amp;nbsp;&amp;nbsp; " style="edgeLabel;html=1;align=center;verticalAlign=middle;resizable=0;points=[];" vertex="1" connectable="0" parent="e3mpNffNsozh0yP6Fvxf-37">
          <mxGeometry x="-0.0951" relative="1" as="geometry">
            <mxPoint x="8" y="-12" as="offset" />
          </mxGeometry>
        </mxCell>
        <mxCell id="e3mpNffNsozh0yP6Fvxf-57" value="&lt;div&gt;&amp;nbsp;&amp;nbsp;&amp;nbsp;&amp;nbsp;&amp;nbsp;&lt;/div&gt;&lt;div&gt;&lt;br&gt; &lt;/div&gt;" style="edgeLabel;html=1;align=center;verticalAlign=middle;resizable=0;points=[];" vertex="1" connectable="0" parent="e3mpNffNsozh0yP6Fvxf-37">
          <mxGeometry x="-0.7621" relative="1" as="geometry">
            <mxPoint x="-10" y="4" as="offset" />
          </mxGeometry>
        </mxCell>
        <mxCell id="e3mpNffNsozh0yP6Fvxf-38" value="Register" style="ellipse;whiteSpace=wrap;html=1;fillColor=none;" vertex="1" parent="1">
          <mxGeometry x="280" y="220" width="120" height="40" as="geometry" />
        </mxCell>
        <mxCell id="e3mpNffNsozh0yP6Fvxf-39" value="Login" style="ellipse;whiteSpace=wrap;html=1;fillColor=none;" vertex="1" parent="1">
          <mxGeometry x="300" y="270" width="120" height="30" as="geometry" />
        </mxCell>
        <mxCell id="e3mpNffNsozh0yP6Fvxf-40" value="Logout" style="ellipse;whiteSpace=wrap;html=1;fillColor=none;" vertex="1" parent="1">
          <mxGeometry x="290" y="310" width="120" height="30" as="geometry" />
        </mxCell>
        <mxCell id="e3mpNffNsozh0yP6Fvxf-41" style="edgeStyle=orthogonalEdgeStyle;rounded=0;orthogonalLoop=1;jettySize=auto;html=1;entryX=0.38;entryY=0.041;entryDx=0;entryDy=0;entryPerimeter=0;dashed=1;endArrow=open;endFill=0;" edge="1" parent="1" source="e3mpNffNsozh0yP6Fvxf-15" target="e3mpNffNsozh0yP6Fvxf-16">
          <mxGeometry relative="1" as="geometry" />
        </mxCell>
        <mxCell id="e3mpNffNsozh0yP6Fvxf-42" style="edgeStyle=orthogonalEdgeStyle;rounded=0;orthogonalLoop=1;jettySize=auto;html=1;dashed=1;endArrow=open;endFill=0;entryX=0.5;entryY=1;entryDx=0;entryDy=0;exitX=0.459;exitY=-0.004;exitDx=0;exitDy=0;exitPerimeter=0;" edge="1" parent="1" source="e3mpNffNsozh0yP6Fvxf-17" target="e3mpNffNsozh0yP6Fvxf-16">
          <mxGeometry relative="1" as="geometry">
            <mxPoint x="520" y="220" as="targetPoint" />
            <Array as="points">
              <mxPoint x="505" y="218" />
              <mxPoint x="505" y="218" />
            </Array>
          </mxGeometry>
        </mxCell>
        <mxCell id="e3mpNffNsozh0yP6Fvxf-45" value="" style="endArrow=none;html=1;rounded=0;exitX=0.088;exitY=0.175;exitDx=0;exitDy=0;exitPerimeter=0;" edge="1" parent="1" source="e3mpNffNsozh0yP6Fvxf-14">
          <mxGeometry width="50" height="50" relative="1" as="geometry">
            <mxPoint x="380" y="340" as="sourcePoint" />
            <mxPoint x="200" y="180" as="targetPoint" />
          </mxGeometry>
        </mxCell>
        <mxCell id="e3mpNffNsozh0yP6Fvxf-50" value="&amp;nbsp;&amp;nbsp;&amp;nbsp;&amp;nbsp; " style="edgeLabel;html=1;align=center;verticalAlign=middle;resizable=0;points=[];" vertex="1" connectable="0" parent="e3mpNffNsozh0yP6Fvxf-45">
          <mxGeometry x="-0.49" y="-1" relative="1" as="geometry">
            <mxPoint x="12" y="24" as="offset" />
          </mxGeometry>
        </mxCell>
        <mxCell id="e3mpNffNsozh0yP6Fvxf-71" value="&amp;nbsp;&amp;nbsp;&amp;nbsp;&amp;nbsp; " style="edgeLabel;html=1;align=center;verticalAlign=middle;resizable=0;points=[];" vertex="1" connectable="0" parent="e3mpNffNsozh0yP6Fvxf-45">
          <mxGeometry x="-0.1027" y="-1" relative="1" as="geometry">
            <mxPoint x="-1" as="offset" />
          </mxGeometry>
        </mxCell>
        <mxCell id="e3mpNffNsozh0yP6Fvxf-75" value="&amp;nbsp;&amp;nbsp;&amp;nbsp; " style="edgeLabel;html=1;align=center;verticalAlign=middle;resizable=0;points=[];" vertex="1" connectable="0" parent="e3mpNffNsozh0yP6Fvxf-45">
          <mxGeometry x="-0.2746" relative="1" as="geometry">
            <mxPoint as="offset" />
          </mxGeometry>
        </mxCell>
        <mxCell id="e3mpNffNsozh0yP6Fvxf-46" value="" style="endArrow=none;html=1;rounded=0;entryX=0;entryY=0.5;entryDx=0;entryDy=0;" edge="1" parent="1" target="e3mpNffNsozh0yP6Fvxf-48">
          <mxGeometry width="50" height="50" relative="1" as="geometry">
            <mxPoint x="190" y="360" as="sourcePoint" />
            <mxPoint x="462" y="365" as="targetPoint" />
            <Array as="points">
              <mxPoint x="190" y="360" />
            </Array>
          </mxGeometry>
        </mxCell>
        <mxCell id="e3mpNffNsozh0yP6Fvxf-48" value="delete a Lot" style="ellipse;whiteSpace=wrap;html=1;fillColor=none;" vertex="1" parent="1">
          <mxGeometry x="445" y="380" width="120" height="40" as="geometry" />
        </mxCell>
        <mxCell id="e3mpNffNsozh0yP6Fvxf-56" value="" style="endArrow=none;html=1;rounded=0;exitX=0;exitY=0.5;exitDx=0;exitDy=0;" edge="1" parent="1" source="e3mpNffNsozh0yP6Fvxf-39">
          <mxGeometry width="50" height="50" relative="1" as="geometry">
            <mxPoint x="420" y="320" as="sourcePoint" />
            <mxPoint x="200" y="180" as="targetPoint" />
          </mxGeometry>
        </mxCell>
        <mxCell id="e3mpNffNsozh0yP6Fvxf-63" value="" style="endArrow=none;html=1;rounded=0;exitX=-0.001;exitY=0.643;exitDx=0;exitDy=0;exitPerimeter=0;" edge="1" parent="1" source="e3mpNffNsozh0yP6Fvxf-39">
          <mxGeometry width="50" height="50" relative="1" as="geometry">
            <mxPoint x="313" y="264" as="sourcePoint" />
            <mxPoint x="190" y="360" as="targetPoint" />
          </mxGeometry>
        </mxCell>
        <mxCell id="e3mpNffNsozh0yP6Fvxf-58" value="" style="endArrow=none;html=1;rounded=0;exitX=0.107;exitY=0.162;exitDx=0;exitDy=0;exitPerimeter=0;" edge="1" parent="1" source="e3mpNffNsozh0yP6Fvxf-40">
          <mxGeometry width="50" height="50" relative="1" as="geometry">
            <mxPoint x="310" y="290" as="sourcePoint" />
            <mxPoint x="200" y="180" as="targetPoint" />
          </mxGeometry>
        </mxCell>
        <mxCell id="e3mpNffNsozh0yP6Fvxf-66" value="" style="endArrow=none;html=1;rounded=0;exitX=0;exitY=0.5;exitDx=0;exitDy=0;" edge="1" parent="1" source="e3mpNffNsozh0yP6Fvxf-40">
          <mxGeometry width="50" height="50" relative="1" as="geometry">
            <mxPoint x="310" y="299" as="sourcePoint" />
            <mxPoint x="190" y="360" as="targetPoint" />
          </mxGeometry>
        </mxCell>
        <mxCell id="e3mpNffNsozh0yP6Fvxf-76" value="&lt;font style=&quot;font-size: 9px;&quot;&gt;&amp;lt;include&amp;gt;&lt;/font&gt;" style="text;html=1;align=center;verticalAlign=middle;whiteSpace=wrap;rounded=0;" vertex="1" parent="1">
          <mxGeometry x="490" y="150" width="60" height="30" as="geometry" />
        </mxCell>
        <mxCell id="e3mpNffNsozh0yP6Fvxf-77" value="&lt;font style=&quot;font-size: 9px;&quot;&gt;&amp;lt;include&amp;gt;&lt;/font&gt;" style="text;html=1;align=center;verticalAlign=middle;whiteSpace=wrap;rounded=0;" vertex="1" parent="1">
          <mxGeometry x="510" y="190" width="60" height="30" as="geometry" />
        </mxCell>
      </root>
    </mxGraphModel>
  </diagram>
</mxfile>
